# xmcd CD database file
#
# Track frame offsets:
#	150
#	21810
#	40341
#	64066
#	84698
#	102642
#	119729
#	137723
#	159072
#
# Disc length: 2467 seconds
#
# Revision: 1
# Processed by: cddbd v1.5.2PL0 Copyright (c) Steve Scherf et al.
# Submitted via: CDex 1.70beta2
#
DISCID=7809a109
DTITLE=유영석 - 20주년 기념앨범 [CD1)
DYEAR=2009
DGENRE=Pop
TTITLE0=눈물나는 날에는 (김연우)
TTITLE1=꿈에서 본 거리 (윈터플레이)
TTITLE2=7년간의 사랑 (슈퍼주니어 규현)
TTITLE3=세상이 그대를 속일지라도 (김건모)
TTITLE4=네모의 꿈 (조규찬)
TTITLE5=사랑하면 할수록 (이수영)
TTITLE6=내게 영원히 (유리상자)
TTITLE7=그대도 나 같음을 (김지호)
TTITLE8=배려 (박기영)
EXTD=YEAR: 2009
EXTT0=
EXTT1=
EXTT2=
EXTT3=
EXTT4=
EXTT5=
EXTT6=
EXTT7=
EXTT8=
PLAYORDER=
